<?xml version="1.0" standalone="no"?>
<!DOCTYPE svg PUBLIC "-//W3C//DTD SVG 20010904//EN"
 "http://www.w3.org/TR/2001/REC-SVG-20010904/DTD/svg10.dtd">
<svg version="1.0" xmlns="http://www.w3.org/2000/svg"
 width="500.000000pt" height="205.000000pt" viewBox="0 0 500.000000 205.000000"
 preserveAspectRatio="xMidYMid meet">

<g transform="translate(0.000000,205.000000) scale(0.100000,-0.100000)"
fill="#000000" stroke="none">
<path d="M464 1951 c-92 -5 -126 -10 -148 -24 -57 -38 -56 -17 -56 -862 0
-840 -2 -813 54 -865 l28 -25 246 -3 247 -3 -100 102 c-55 56 -119 121 -142
145 -23 24 -47 61 -54 83 -11 36 -9 45 12 87 32 65 68 89 130 89 48 0 49 -1
149 -100 l100 -100 222 221 c123 122 267 263 321 314 l97 93 -1 361 c0 253 -4
371 -12 395 -7 19 -29 48 -50 65 l-39 31 -441 1 c-243 0 -496 -2 -563 -5z
m703 -383 c28 -26 30 -61 3 -88 -19 -19 -33 -20 -312 -20 -286 0 -292 0 -315
22 -29 27 -29 55 -1 85 l21 23 291 0 c284 0 290 0 313 -22z m-117 -283 c24
-12 30 -22 30 -47 0 -17 -7 -40 -17 -50 -15 -16 -36 -18 -259 -18 -237 0 -244
1 -264 22 -27 29 -25 54 5 83 l24 25 226 0 c183 0 232 -3 255 -15z m-83 -296
c18 -16 16 -74 -3 -93 -13 -13 -46 -16 -210 -16 -181 0 -195 1 -214 20 -25 25
-25 51 -2 79 15 18 30 21 127 24 153 5 286 -1 302 -14z"/>
<path d="M4160 1505 c-6 -16 -9 -38 -6 -50 3 -11 1 -27 -4 -35 -9 -13 -11 -13
-20 0 -5 8 -10 28 -10 43 0 18 -4 26 -11 21 -8 -4 -9 -25 -5 -63 l7 -55 -32
29 c-25 24 -30 26 -24 10 20 -53 19 -58 -5 -45 -22 12 -22 12 -7 -17 8 -15 24
-49 35 -75 17 -38 28 -49 56 -56 64 -18 96 -3 134 62 26 44 32 64 27 84 -7 25
-8 26 -15 7 -7 -17 -9 -16 -10 10 -1 17 -5 39 -10 50 -7 16 -9 13 -9 -17 -1
-21 -5 -38 -11 -38 -5 0 -10 17 -10 38 0 20 -5 44 -10 52 -7 12 -10 8 -10 -15
0 -41 -20 -12 -20 30 0 17 -4 37 -10 45 -7 11 -11 8 -20 -15z m20 -200 c0 -19
5 -25 23 -25 18 0 19 -2 7 -10 -13 -9 -13 -10 0 -10 8 -1 3 -7 -12 -16 -25
-13 -31 -13 -55 0 -16 9 -21 15 -13 16 13 0 13 1 0 10 -12 8 -11 10 8 10 13 0
22 6 21 13 -3 23 1 37 11 37 6 0 10 -11 10 -25z"/>
<path d="M3102 1414 c-86 -43 -128 -138 -103 -231 29 -105 143 -168 260 -142
120 26 184 125 159 244 -28 129 -186 194 -316 129z m178 -92 c58 -59 45 -153
-27 -187 -79 -38 -159 24 -150 115 10 92 114 134 177 72z"/>
<path d="M1927 1348 c-20 -46 -58 -134 -86 -195 l-50 -113 55 0 c56 0 56 0 71
40 l16 40 84 0 85 0 15 -40 16 -40 114 0 113 0 0 49 0 49 68 7 c87 10 134 34
157 81 23 49 16 116 -16 151 -40 43 -78 53 -203 53 l-116 0 -2 -192 -3 -193
-85 192 -85 193 -56 0 -57 0 -35 -82z m541 -14 c26 -18 29 -60 5 -86 -11 -13
-30 -18 -65 -18 l-48 0 0 60 0 60 43 0 c23 0 53 -7 65 -16z m-419 -81 l21 -53
-50 0 c-28 0 -50 2 -50 4 0 19 45 115 51 109 4 -4 17 -32 28 -60z"/>
<path d="M2630 1235 l0 -195 55 0 55 0 0 55 c0 54 1 55 29 55 23 0 35 -10 66
-55 l38 -55 58 0 58 0 -41 59 -41 60 31 31 c73 72 46 193 -51 229 -16 6 -80
11 -143 11 l-114 0 0 -195z m218 99 c26 -18 29 -60 5 -86 -11 -13 -30 -18 -65
-18 l-48 0 0 60 0 60 43 0 c23 0 53 -7 65 -16z"/>
<path d="M3450 1235 l0 -195 55 0 55 0 0 49 0 49 68 7 c120 12 172 56 172 143
0 107 -56 141 -232 142 l-118 0 0 -195z m218 99 c26 -18 30 -65 6 -88 -10 -10
-33 -16 -65 -16 l-49 0 0 60 0 60 43 0 c23 0 53 -7 65 -16z"/>
<path d="M3939 1033 c-10 -11 -10 -14 -1 -9 8 5 12 1 12 -11 0 -15 2 -16 10
-3 6 10 6 16 0 18 -6 2 -8 8 -4 13 9 15 -3 10 -17 -8z"/>
<path d="M4374 1020 c2 -22 30 -19 34 4 3 11 0 16 -7 11 -6 -3 -9 -11 -6 -16
4 -5 2 -9 -4 -9 -5 0 -11 6 -14 13 -2 7 -3 6 -3 -3z"/>
<path d="M3974 1009 c-10 -16 18 -40 35 -29 12 7 12 11 2 24 -16 19 -27 20
-37 5z m30 -20 c-3 -5 -10 -7 -15 -3 -5 3 -7 10 -3 15 3 5 10 7 15 3 5 -3 7
-10 3 -15z"/>
<path d="M4350 1012 c0 -7 -4 -10 -10 -7 -5 3 -10 -1 -10 -10 0 -9 -4 -13 -10
-10 -6 3 -7 -1 -4 -9 3 -9 2 -16 -4 -16 -6 0 -13 6 -15 13 -4 9 -6 8 -6 -2 -1
-10 -4 -11 -14 -3 -10 9 -19 7 -35 -4 -23 -16 -29 -34 -12 -34 6 0 10 7 10 15
0 14 10 18 28 13 4 -2 6 -7 4 -13 -2 -5 2 -5 9 2 6 6 18 9 25 6 8 -3 17 2 20
11 3 9 11 13 17 9 6 -4 7 -1 2 7 -6 10 -4 12 8 7 19 -7 21 1 7 23 -7 11 -10
11 -10 2z"/>
<path d="M4033 978 c-1 -11 1 -16 5 -12 4 5 11 12 15 15 5 3 2 9 -5 12 -9 3
-14 -3 -15 -15z"/>
<path d="M4061 967 c-9 -12 -8 -16 5 -21 22 -8 28 -1 17 19 -8 14 -11 14 -22
2z"/>
<path d="M4110 952 c0 -11 7 -18 20 -18 11 0 20 6 20 13 0 7 -7 10 -17 6 -11
-4 -14 -3 -9 5 4 7 2 12 -3 12 -6 0 -11 -8 -11 -18z"/>
<path d="M4166 953 c-11 -11 -6 -23 9 -23 8 0 15 4 15 9 0 13 -16 22 -24 14z"/>
<path d="M4200 945 c0 -8 2 -15 4 -15 2 0 6 7 10 15 3 8 1 15 -4 15 -6 0 -10
-7 -10 -15z"/>
<path d="M1840 841 c0 -5 4 -13 10 -16 9 -5 -16 -86 -40 -127 -15 -26 -13 -28
20 -28 27 0 30 2 24 25 -6 23 -3 25 24 25 31 0 56 -20 34 -28 -25 -8 -10 -22
23 -22 34 0 43 8 28 24 -4 4 -19 39 -33 79 -25 67 -29 72 -58 75 -18 2 -32 -1
-32 -7z m60 -70 c8 -29 7 -31 -16 -31 -28 0 -27 -2 -13 39 13 37 16 36 29 -8z"/>
<path d="M2060 835 c0 -8 5 -15 10 -15 14 0 12 -104 -2 -118 -10 -10 -16 -8
-30 10 -15 21 -17 21 -23 5 -12 -30 2 -47 39 -47 44 0 56 20 56 94 0 30 5 58
10 61 18 11 0 25 -31 25 -19 0 -29 -5 -29 -15z"/>
<path d="M2160 841 c0 -6 5 -13 10 -16 6 -3 10 -31 10 -61 0 -74 12 -94 56
-94 63 0 74 12 74 85 0 35 5 67 10 70 19 12 10 25 -19 25 l-28 0 5 -68 c3 -53
1 -70 -11 -80 -12 -10 -21 -11 -36 -2 -17 9 -21 20 -21 65 0 29 5 57 10 60 21
13 9 25 -25 25 -19 0 -35 -4 -35 -9z"/>
<path d="M2414 833 c8 -19 -31 -143 -45 -143 -5 0 -9 -4 -9 -10 0 -5 16 -10
35 -10 33 0 48 14 23 22 -22 8 3 28 34 28 27 0 30 -2 24 -25 -6 -23 -4 -25 29
-25 19 0 35 5 35 10 0 6 -4 10 -9 10 -5 0 -21 36 -36 80 -25 76 -28 80 -57 80
-24 0 -29 -3 -24 -17z m51 -65 c6 -24 4 -28 -14 -28 -22 0 -25 10 -15 48 8 27
20 19 29 -20z"/>
<path d="M2575 841 c-3 -5 -1 -12 5 -16 13 -8 13 -135 0 -135 -5 0 -10 -4 -10
-10 0 -5 16 -10 35 -10 19 0 35 5 35 10 0 6 -4 10 -10 10 -5 0 -10 24 -10 53
l0 52 40 -62 c55 -86 70 -84 70 11 0 41 5 78 10 81 21 13 9 25 -25 25 -34 0
-46 -12 -25 -25 6 -3 10 -27 10 -53 l0 -47 -40 63 c-38 59 -69 79 -85 53z"/>
<path d="M2870 841 c0 -6 5 -13 10 -16 6 -3 10 -33 10 -65 0 -32 -4 -62 -10
-65 -22 -13 -8 -25 30 -25 22 0 40 5 40 10 0 6 -7 10 -15 10 -8 0 -15 9 -15
20 0 14 7 20 23 20 36 0 67 27 67 60 0 18 -8 34 -22 44 -24 17 -118 22 -118 7z
m105 -31 c12 -20 -6 -50 -31 -50 -20 0 -24 5 -24 30 0 25 4 30 24 30 14 0 28
-5 31 -10z"/>
<path d="M3065 760 l0 -90 27 0 c25 0 26 2 21 35 -4 28 -2 35 10 35 20 0 39
-33 31 -54 -5 -12 1 -16 25 -16 17 0 31 2 31 4 0 3 -10 21 -21 41 -16 27 -19
39 -10 48 18 18 13 65 -8 77 -11 5 -39 10 -63 10 l-43 0 0 -90z m90 35 c0 -13
-8 -21 -22 -23 -19 -3 -23 1 -23 23 0 22 4 26 23 23 14 -2 22 -10 22 -23z"/>
<path d="M3288 836 c-40 -30 -45 -109 -10 -148 9 -11 29 -18 53 -18 48 0 79
35 79 92 0 69 -72 112 -122 74z m79 -33 c14 -35 7 -85 -12 -99 -24 -18 -30
-18 -49 2 -19 18 -21 85 -4 102 18 18 58 15 65 -5z"/>
<path d="M3460 835 c0 -8 5 -15 10 -15 6 0 10 -26 10 -59 0 -33 -4 -63 -10
-66 -21 -13 -9 -25 25 -25 19 0 35 5 35 10 0 6 -4 10 -10 10 -5 0 -10 8 -10
19 0 14 10 21 35 25 55 11 75 71 33 100 -30 21 -118 22 -118 1z m104 -31 c8
-21 -11 -44 -35 -44 -14 0 -19 7 -19 30 0 25 4 30 24 30 13 0 27 -7 30 -16z"/>
<path d="M3676 829 c-22 -17 -26 -28 -26 -70 0 -60 24 -89 74 -89 45 0 76 37
76 90 0 78 -66 115 -124 69z m88 -41 c12 -33 -1 -76 -26 -92 -40 -25 -82 76
-46 112 22 22 62 10 72 -20z"/>
<path d="M3866 831 c-28 -31 -14 -65 34 -84 45 -17 50 -31 18 -48 -17 -9 -24
-9 -33 5 -18 23 -37 20 -33 -6 2 -19 10 -24 44 -26 48 -4 74 16 74 54 0 20 -8
29 -40 42 -46 20 -56 52 -15 52 14 0 25 -4 25 -10 0 -5 5 -10 11 -10 6 0 9 10
7 23 -4 31 -66 37 -92 8z"/>
<path d="M4050 841 c0 -5 4 -13 10 -16 9 -5 -16 -86 -40 -127 -15 -26 -13 -28
20 -28 27 0 30 2 24 25 -6 23 -3 25 24 25 31 0 56 -20 34 -28 -25 -8 -10 -22
23 -22 34 0 43 8 28 24 -4 4 -19 39 -33 79 -25 67 -29 72 -58 75 -18 2 -32 -1
-32 -7z m60 -70 c8 -29 7 -31 -16 -31 -28 0 -27 -2 -13 39 13 37 16 36 29 -8z"/>
<path d="M4220 835 c0 -8 5 -15 10 -15 6 0 10 -26 10 -59 0 -33 -4 -63 -10
-66 -25 -16 -5 -25 55 -25 63 0 65 1 65 25 0 16 -6 25 -15 25 -8 0 -15 -4 -15
-10 0 -5 -12 -10 -26 -10 l-26 0 4 75 3 75 -27 0 c-18 0 -28 -5 -28 -15z"/>
<path d="M1313 428 c-139 -139 -253 -255 -253 -258 0 -5 284 -6 377 -2 53 2
108 47 123 100 7 22 10 112 8 225 l-3 187 -252 -252z"/>
</g>
</svg>
